<?xml version="1.0"?>
<svg width="640" height="480" xmlns="http://www.w3.org/2000/svg" xmlns:svg="http://www.w3.org/2000/svg" data-name="Layer 1">
 <g class="layer">
  <title>Layer 1</title>
  <g id="svg_54">
   <path d="m106.72,406.97c-0.01,0.02 -0.01,0.05 -0.02,0.07l-45.5,0.09c-0.86,-0.53 -1.7,-1.1 -2.53,-1.67a85.39,85.39 0 0 1 -14.11,-11.94a67.88,67.88 0 0 1 -11.96,-17.54c-6.02,-12.79 -7.9,-27.35 -3.28,-40.52a0.01,0.01 0 0 1 0.01,-0.01c0.11,-0.33 0.24,-0.66 0.36,-1c0.19,0.33 0.38,0.65 0.57,0.98l0.01,0.01a95,95 0 0 0 8.87,12.45l0,0.01c0.26,0.3 0.51,0.6 0.76,0.89a0.01,0.01 0 0 0 0.01,0.01a99.04,99.04 0 0 0 28.41,22.79c0.04,0.02 0.06,0.04 0.1,0.06a0.84,0.84 0 0 0 0.11,0.06c0.01,0.01 0.02,0.01 0.02,0.02c2.39,1.29 4.85,2.46 7.36,3.53l0,0.01c1.97,0.85 3.97,1.61 5.99,2.32c4.3,1.5 8.93,2.86 13.05,4.84c4.01,1.92 7.53,4.42 9.84,8.19c0.17,0.3 0.35,0.61 0.52,0.92l-1.33,9.28l2.67,-0.02l-0.24,4.56l-0.06,1.32l0.37,0.28l0.01,0.01z" fill="#f0f0f0" id="svg_1"/>
   <path d="m95.48,407.07l-0.96,0c-0.09,-0.56 -0.18,-1.11 -0.29,-1.67a35.77,35.77 0 0 0 -1.11,-4.49c-0.21,-0.66 -0.45,-1.31 -0.73,-1.94c-1.56,-3.63 -4.24,-6.82 -8.18,-7.88a15.02,15.02 0 0 0 -3.52,-0.49c-2.35,-0.09 -4.73,0.21 -7.07,0.34c-0.57,0.03 -1.16,0.06 -1.72,0.05l-0.02,0a21.07,21.07 0 0 1 -8.84,-1.77a33.34,33.34 0 0 1 -9.26,-6.55a71.54,71.54 0 0 1 -5.02,-5.3l0,-0.01c-0.21,-0.23 -0.41,-0.47 -0.62,-0.72a84.92,84.92 0 0 1 -9.73,-14.41a80.95,80.95 0 0 1 -3.76,-7.98a0.37,0.37 0 0 1 -0.04,-0.07a85.17,85.17 0 0 1 -5.3,-18.7a0.01,0.01 0 0 1 0.01,-0.01c-0.06,-0.29 -0.1,-0.58 -0.14,-0.87c-0.09,-0.6 0.86,-0.63 0.94,-0.03c0.05,0.29 0.08,0.57 0.14,0.87l0.01,0.01a84.61,84.61 0 0 0 5.02,17.93l0,0.01c0.12,0.29 0.24,0.58 0.36,0.87a83.88,83.88 0 0 0 13.42,22.01l0.01,0.02c0.06,0.07 0.12,0.13 0.18,0.2a0.03,0.03 0 0 1 0.01,0.02c0.01,-0.01 0.01,0 0.01,0c1.3,1.54 2.67,3 4.09,4.44a36.35,36.35 0 0 0 9.03,6.92a20.05,20.05 0 0 0 9.03,2.18c0.31,0 0.64,0.01 0.95,0q0.38,0 0.76,-0.02c2.38,-0.12 4.79,-0.42 7.18,-0.39a19.4,19.4 0 0 1 3.24,0.33a12.75,12.75 0 0 1 8.42,6.14a22.27,22.27 0 0 1 2.13,4.79c0.17,0.54 0.32,1.11 0.47,1.67l0,0.01c0.23,0.9 0.42,1.81 0.6,2.73a0.41,0.41 0 0 1 0.02,0.09c0.11,0.55 0.2,1.11 0.29,1.67l0,0.01z" fill="#fff" id="svg_2"/>
   <path d="m49.12,377.11a12.64,12.64 0 0 1 -16.35,-1.01c-0.43,-0.42 0.2,-1.12 0.64,-0.7a11.71,11.71 0 0 0 15.21,0.91c0.49,-0.37 0.99,0.44 0.5,0.8l0.01,0z" fill="#fff" id="svg_3"/>
   <path d="m71.38,390.33a24.38,24.38 0 0 0 -3.89,-17.33c-0.34,-0.5 0.46,-1 0.8,-0.5a25.35,25.35 0 0 1 4.01,18.04c-0.09,0.61 -1.01,0.39 -0.92,-0.21z" fill="#fff" id="svg_4"/>
   <path d="m35.04,353.51a7.16,7.16 0 0 0 4.05,-5.45c0.08,-0.6 1,-0.39 0.92,0.21a8.02,8.02 0 0 1 -4.48,6.04a0.49,0.49 0 0 1 -0.65,-0.16a0.48,0.48 0 0 1 0.16,-0.64z" fill="#fff" id="svg_5"/>
   <path d="m113.51,376.15l-0.38,3.56l-6.14,-0.08l-0.91,6.42l-0.16,1.11l0,0.01l-0.63,4.39l-1.33,9.28l2.67,-0.02l-0.24,4.56l-0.06,1.32l0.37,0.28l0.08,0.07l0.03,0.02c-0.07,0.16 -0.16,0.31 -0.25,0.47c0.05,-0.17 0.08,-0.32 0.12,-0.49l-17.77,0.04c-0.33,-0.55 -0.65,-1.11 -0.98,-1.67a122.52,122.52 0 0 1 -7.27,-14.81c-0.13,-0.31 -0.26,-0.64 -0.38,-0.96l0,-0.01a92.22,92.22 0 0 1 -4.4,-14.37l0,-0.01a80.03,80.03 0 0 1 -1.33,-8.12a67.73,67.73 0 0 1 1,-21.14a0.8,0.8 0 0 0 0.03,-0.1c2.77,-13.26 9.58,-25.54 20.38,-33.32c0.45,-0.34 0.91,-0.65 1.38,-0.97c0.01,-0.01 0.01,-0.01 0.02,-0.01a0.01,0.01 0 0 0 0.01,-0.01c0.29,-0.19 0.58,-0.38 0.87,-0.57c-0.04,0.38 -0.09,0.76 -0.12,1.14a93.28,93.28 0 0 0 -0.41,15.28l0,0.02c0.01,0.4 0.03,0.78 0.06,1.19l0,0.02a99.39,99.39 0 0 0 9,35.36a0.42,0.42 0 0 0 0.04,0.08c0.02,0.04 0.03,0.06 0.05,0.1a94.69,94.69 0 0 0 6.66,11.95l-0.01,-0.02z" fill="#f0f0f0" id="svg_6"/>
   <path d="m98.57,311.37c-0.14,0.26 -0.29,0.52 -0.42,0.79q-1.57,2.97 -2.88,6.08a82.82,82.82 0 0 0 -3.9,11.26c-0.08,0.29 -0.17,0.61 -0.24,0.91a83.72,83.72 0 0 0 -2.54,25.69c0,0.08 0.01,0.17 0.02,0.25q0.17,3.02 0.59,6.03a36.35,36.35 0 0 0 3.04,10.95c0.22,0.45 0.46,0.89 0.7,1.33a19.2,19.2 0 0 0 2.12,2.95a19.6,19.6 0 0 0 1.85,1.89c0.41,0.36 0.81,0.71 1.23,1.04c0.25,0.19 0.5,0.39 0.76,0.57c0.21,0.14 0.41,0.29 0.63,0.43c2.18,1.48 4.53,2.81 6.58,4.51l-0.16,1.11c-1.98,-1.78 -4.37,-3.12 -6.58,-4.6a26.61,26.61 0 0 1 -3.86,-3.09c-0.16,-0.16 -0.31,-0.31 -0.47,-0.48a18.78,18.78 0 0 1 -2.16,-2.68c-0.32,-0.49 -0.64,-0.98 -0.92,-1.49a33.62,33.62 0 0 1 -3.44,-10.8a72.59,72.59 0 0 1 -0.82,-7.26c-0.02,-0.31 -0.05,-0.64 -0.06,-0.95a85.38,85.38 0 0 1 0.91,-17.36a86.1,86.1 0 0 1 6.12,-21.15q1.26,-2.9 2.74,-5.71c0.13,-0.26 0.26,-0.52 0.4,-0.77c0.29,-0.53 1.05,0.01 0.77,0.54l-0.01,0z" fill="#fff" id="svg_7"/>
   <path d="m88.11,356.77a12.64,12.64 0 0 1 -12.44,-10.66c-0.09,-0.6 0.84,-0.77 0.93,-0.17a11.71,11.71 0 0 0 11.59,9.88c0.61,0.01 0.52,0.94 -0.08,0.94z" fill="#fff" id="svg_8"/>
   <path d="m97.92,380.73a24.38,24.38 0 0 0 7.33,-16.18c0.04,-0.61 0.98,-0.52 0.94,0.08a25.35,25.35 0 0 1 -7.66,16.82c-0.43,0.43 -1.05,-0.3 -0.61,-0.72z" fill="#fff" id="svg_9"/>
   <path d="m91.07,329.45a7.16,7.16 0 0 0 6.52,-1.91c0.43,-0.43 1.04,0.29 0.61,0.72a8.02,8.02 0 0 1 -7.21,2.13a0.49,0.49 0 0 1 -0.43,-0.52a0.48,0.48 0 0 1 0.52,-0.43l0,0.01z" fill="#fff" id="svg_10"/>
   <path d="m236.48,407.35a0.84,0.84 0 0 1 -0.84,0.84l-196.75,0.4a0.84,0.84 0 1 1 0,-1.67l196.75,-0.4a0.84,0.84 0 0 1 0.84,0.84l0,-0.01z" fill="#ccc" id="svg_11"/>
   <path d="m100.1,263.52a6.01,6.01 0 0 0 -1.22,-9.14l4.88,-20.8l-10.42,3.83l-3.04,19.17a6.04,6.04 0 0 0 9.79,6.94z" fill="#ffb8b8" id="svg_55"/>
   <path d="m125.01,176.33l-4.16,10.78s1.81,10.76 -1.17,13.16s-1.8,2.39 -1.79,4.19a9.19,9.19 0 0 1 -3.57,6.58c-2.39,1.81 -13.08,38.29 -13.08,38.29l-10.77,0.02a33.73,33.73 0 0 0 -0.02,-8.37c-0.61,-4.19 1.77,-14.96 2.96,-16.75s-0.01,-4.18 -0.02,-7.77s2.39,-5.39 2.37,-11.36s7.06,-52.63 6.46,-58.01s5.96,-10.18 5.96,-10.18l5.98,-0.01l10.84,39.44l0.02,-0.01z" fill="#e6e6e6" id="svg_56"/>
   <polygon fill="#ffb6b6" id="svg_57" points="103.39923095703125,394.72991943359375 111.14654541015625,394.7142028808594 114.7731704711914,364.8223571777344 103.3378677368164,364.8455810546875 103.39923095703125,394.72991943359375 "/>
   <path d="m101.07,389.17l12.38,-0.76l0.01,5.3l11.78,8.1a3.32,3.32 0 0 1 -1.87,6.05l-14.74,0.03l-2.55,-5.25l-0.99,5.25l-5.55,0.01l1.52,-18.74l0.01,0.02z" fill="#2f2e41" id="svg_58"/>
   <polygon fill="#ffb6b6" id="svg_59" points="146.91949462890625,394.6415710449219 154.66677856445312,394.6258850097656 158.29342651367188,364.7340393066406 146.85812377929688,364.7572326660156 146.91949462890625,394.6415710449219 "/>
   <path d="m144.59,389.08l12.38,-0.76l0.01,5.3l11.78,8.1a3.32,3.32 0 0 1 -1.87,6.05l-14.74,0.03l-2.55,-5.25l-0.99,5.25l-5.55,0.01l1.52,-18.74l0.01,0.02z" fill="#2f2e41" id="svg_60"/>
   <path d="m100,368.97l0.08,0l4.21,-48.6a12.71,12.71 0 0 1 0.14,-12.01l0.22,-0.39l-0.56,-2.56a16.34,16.34 0 0 1 0.91,-9.83l-1.51,-45.33c-5.04,-32.17 18.59,-53.21 18.59,-53.21l35.46,-0.07l7.66,26.14c2.91,27.83 11.92,57.1 10.78,84.1c-0.86,20.54 -10.95,38.98 -14.36,58.99l0.22,0.11c0.78,0.27 1.12,1.35 0.76,2.42s-1.3,1.72 -2.08,1.45l-18.72,-0.62c-0.78,-0.27 -1.12,-1.35 -0.76,-2.42c0.36,-1.08 1.3,-1.72 2.08,-1.45l1.27,0.64l9.13,-49.01l0.29,-8.56l-0.64,-9.72l-14.89,-41.56l-10.75,53.77l-10.98,58.23a2.04,2.04 0 0 1 -1.37,3.55l-15.16,0.03a2.05,2.05 0 1 1 -0.01,-4.09l-0.01,0z" fill="#2f2e41" id="svg_61"/>
   <path d="m96.76,218.95c-1.17,0 -1.82,-0.22 -2.09,-0.71c-0.38,-0.72 0.28,-1.66 1.02,-2.74a8.4,8.4 0 0 0 1.3,-2.36c0.45,-1.81 3.41,-47.42 1.57,-56.53c-0.42,-2.11 -0.06,-4.81 1.07,-8.03c3.09,-8.8 7.32,-11.52 15.75,-16.92q1.03,-0.66 2.14,-1.37c0.96,-0.62 0.9,-2.67 0.84,-4.84c-0.06,-2.4 -0.14,-4.9 1.04,-6.46l0.07,-0.1l0.13,-0.03c2.85,-0.66 12.44,-1.92 18.12,-0.03l0.08,0.03l0.06,0.06c1.35,1.34 1.48,3.96 1.6,6.49c0.1,2.08 0.19,4.03 0.96,4.88c5.86,6.49 12.47,6.35 12.54,6.35l0.33,-0.01l0.03,0.32c2.6,25.82 6.77,64.8 7.63,66.33a0.46,0.46 0 0 1 0.02,0.48c-1.27,2.39 -59.84,15.18 -64.23,15.19l0.02,-0.01zm63.63,-15.28z" fill="#e6e6e6" id="svg_62"/>
   <circle cx="191.13" cy="124.33" fill="#ffb8b8" id="svg_63" r="24.67" transform="matrix(0.70194 -0.00142481 0.00142481 0.70194 0.303407 7.19772)"/>
   <path d="m87.06,86.56c2.92,-3.42 4.3,-7.96 6.64,-11.83c2.33,-3.88 6.39,-7.36 10.7,-6.47c2.97,0.62 5.27,3.23 6.43,6.14c1.17,2.92 1.4,6.13 1.6,9.28c-0.09,-6.47 4.17,-12.76 10.04,-14.85c5.88,-2.07 12.91,0.21 16.62,5.42a8.98,8.98 0 0 1 11.93,-0.28c3.32,2.95 4.05,8.56 1.63,12.34a9.04,9.04 0 0 1 -11.56,3.1l-1.36,1.26a5.92,5.92 0 0 1 -3.21,6.89c-2.03,0.83 -4.9,0.69 -5.65,2.83c-0.53,1.49 0.47,3.08 1.53,4.22c1.06,1.14 2.31,2.32 2.44,3.9c0.2,2.39 -2.27,4.07 -4.51,4.58a14.1,14.1 0 0 1 -14.56,-6.04q-0.09,-0.14 -0.19,-0.28a20.91,20.91 0 0 1 -4.24,-15.98c0.17,-1.11 0,-1.92 -0.76,-2.18c-3.3,-1.12 -12.52,1.27 -15.3,3.42c-2.79,2.16 -5.02,4.99 -7.7,7.28c-2.68,2.28 -6.11,4.05 -9.52,3.44c-2.74,-0.5 -5.06,-2.47 -6.63,-4.85a29.35,29.35 0 0 1 -3.29,-7.96c6.05,3.48 14.32,2.01 18.92,-3.38l0.02,-0.01z" fill="#2f2e41" id="svg_64"/>
   <path d="m162.96,263.39a6.01,6.01 0 0 1 1.18,-9.15l-4.97,-20.78l10.43,3.79l3.12,19.15a6.04,6.04 0 0 1 -9.76,6.98z" fill="#ffb8b8" id="svg_65"/>
   <path d="m137.49,176.56l4.21,10.76s-1.78,10.77 1.22,13.15s1.81,2.39 1.81,4.18a9.19,9.19 0 0 0 3.6,6.57c2.39,1.8 13.23,38.25 13.23,38.25l10.76,-0.02a33.73,33.73 0 0 1 -0.02,-8.37c0.59,-4.19 -1.82,-14.95 -3.02,-16.74s-0.01,-4.18 -0.02,-7.77s-2.39,-5.38 -2.41,-11.36s-7.28,-52.61 -6.7,-57.98s-6,-10.15 -6,-10.15l-5.98,0.01l-10.68,39.48l0.01,0z" fill="#e6e6e6" id="svg_66"/>
  </g>
  <g id="svg_67">
   <path d="m594.39,115.52l-132.88,0.27a4.33,4.33 0 1 1 -0.02,-8.67l132.88,-0.27a4.33,4.33 0 1 1 0.02,8.67z" fill="#007bff" id="svg_12"/>
   <path d="m594.43,132.64l-132.88,0.27a4.33,4.33 0 0 1 -0.02,-8.67l132.88,-0.27a4.33,4.33 0 0 1 0.02,8.67z" fill="#ffdd00" id="svg_13"/>
   <path d="m519.18,149.93l-57.61,0.12a4.33,4.33 0 0 1 -0.02,-8.67l57.61,-0.12a4.33,4.33 0 1 1 0.02,8.67z" fill="#e6e6e6" id="svg_14"/>
   <path d="m594.81,212.63l-132.88,0.27a4.33,4.33 0 1 1 -0.02,-8.67l132.88,-0.27a4.33,4.33 0 1 1 0.02,8.67z" fill="#e6e6e6" id="svg_15"/>
   <path d="m594.85,229.76l-132.88,0.27a4.33,4.33 0 0 1 -0.02,-8.67l132.88,-0.27a4.33,4.33 0 0 1 0.02,8.67z" fill="#e6e6e6" id="svg_16"/>
   <path d="m519.39,247.3l-57.61,0.12a4.33,4.33 0 0 1 -0.02,-8.67l57.61,-0.12a4.33,4.33 0 1 1 0.02,8.67z" fill="#e6e6e6" id="svg_17"/>
   <path d="m595.02,315.38l-132.88,0.27a4.33,4.33 0 1 1 -0.02,-8.67l132.88,-0.27a4.33,4.33 0 1 1 0.02,8.67z" fill="#e6e6e6" id="svg_18"/>
   <path d="m595.06,332.49l-132.88,0.27a4.33,4.33 0 0 1 -0.02,-8.67l132.88,-0.27a4.33,4.33 0 0 1 0.02,8.67z" fill="#e6e6e6" id="svg_19"/>
   <path d="m519.82,349.78l-57.61,0.12a4.33,4.33 0 0 1 -0.02,-8.67l57.61,-0.12a4.33,4.33 0 1 1 0.02,8.67z" fill="#e6e6e6" id="svg_20"/>
   <path d="m409.02,260.13l-79.99,0.16a8.09,8.09 0 0 1 -8.1,-8.07l-0.11,-52.48a8.09,8.09 0 0 1 8.07,-8.1l79.99,-0.16a8.09,8.09 0 0 1 8.1,8.06l0.11,52.48a8.09,8.09 0 0 1 -8.07,8.1l0,0.01z" fill="#e6e6e6" id="svg_21"/>
   <path d="m403.28,198.05l-68.75,0.14a7.37,7.37 0 0 0 -7.35,7.38l0.09,40.81a7.38,7.38 0 0 0 7.38,7.35l43.84,-0.09a32.31,32.31 0 0 0 32.21,-32.33l-0.03,-15.9a7.37,7.37 0 0 0 -7.38,-7.35l-0.01,-0.01z" fill="#fff" id="svg_22"/>
   <path d="m383.87,211.88l0,0l-0.2,0.37c1.83,-4.51 0.14,-10.06 -3.12,-13.46c-3.27,-3.39 -7.8,-4.94 -12.28,-5.54c-3.32,-0.45 -6.76,-0.43 -9.91,0.79c-4.56,1.77 -8.04,5.85 -10.94,10.09c-1.33,1.93 -2.64,4.15 -2.49,6.57c0.13,2.24 1.47,4.15 2.56,6.05c1.1,1.9 2.02,4.27 1.24,6.36c-0.47,1.24 -1.44,2.13 -2.25,3.15s-1.45,2.39 -1.07,3.67a2.98,2.98 0 0 0 2.22,1.92a7.86,7.86 0 0 0 2.95,-0.07l25.45,-3.91a10.85,10.85 0 0 0 7.83,-15.99z" fill="#2f2e41" id="svg_23"/>
   <circle cx="482.22" cy="290.42" fill="#ffb9b9" id="svg_24" r="16.97" transform="matrix(0.733244 -0.00148836 0.00148836 0.733244 10.7152 3.30461)"/>
   <path d="m397.27,247.65a32.08,32.08 0 0 1 -19.01,6.25l-38.18,0.08c-0.08,-0.06 -0.15,-0.13 -0.23,-0.19l3.54,-9.95a10.69,10.69 0 0 1 9.06,-6.25l2.26,-0.14l5.4,-4.68s14.57,-0.55 14.34,-0.8l8.83,5.29l-0.01,-0.04l3.47,0.2a10.68,10.68 0 0 1 9.09,6.21l1.43,3.99l0,0.02z" fill="#007bff" id="svg_25"/>
   <path d="m376.73,203.69c-0.33,-1.7 -2.06,-2.47 -3.55,-2.85a34.09,34.09 0 0 0 -13.19,-0.7c-3.2,0.47 -6.48,1.48 -8.81,3.99a11.86,11.86 0 0 0 -2.98,7.65a9.1,9.1 0 0 0 1.11,4.85a4.5,4.5 0 0 0 3.74,2.41l0.14,0.52c6.24,-0.89 12.04,-4.78 15.68,-10.55a13.48,13.48 0 0 1 -3.93,6.37a24.53,24.53 0 0 0 10.58,-8.19c0.74,-0.98 1.45,-2.2 1.2,-3.5l0,0.01z" fill="#2f2e41" id="svg_26"/>
   <path d="m408.83,162.74l-79.99,0.16a8.09,8.09 0 0 1 -8.1,-8.07l-0.11,-52.48a8.09,8.09 0 0 1 8.07,-8.1l79.99,-0.16a8.09,8.09 0 0 1 8.1,8.07l0.11,52.48a8.09,8.09 0 0 1 -8.07,8.1z" fill="#ccc" id="svg_27"/>
   <path d="m403.08,100.66l-68.75,0.14a7.38,7.38 0 0 0 -7.35,7.38l0.09,40.81a7.38,7.38 0 0 0 7.38,7.35l43.84,-0.09a32.3,32.3 0 0 0 32.21,-32.33l-0.03,-15.91a7.37,7.37 0 0 0 -7.38,-7.35l-0.01,0z" fill="#fff" id="svg_28"/>
   <circle cx="464.8" cy="137.06" fill="#2f2e41" id="svg_29" r="8" transform="matrix(0.733244 -0.00148836 0.00148836 0.733244 10.9434 3.27847)"/>
   <circle cx="477.63" cy="155.16" fill="#2f2e41" id="svg_30" r="20.26" transform="matrix(0.733244 -0.00148836 0.00148836 0.733244 10.9165 3.29759)"/>
   <circle cx="479.32" cy="158.95" fill="#9e616a" id="svg_31" r="16.46" transform="matrix(0.733244 -0.00148836 0.00148836 0.733244 10.9108 3.3001)"/>
   <path d="m370.99,106.55a13.82,13.82 0 0 0 -20.99,12.11c6.16,1.53 12.62,2.69 19.16,0.33l1.54,-3.79l0.92,3.79c1.99,0.82 4,1.5 5.99,-0.02a14.11,14.11 0 0 0 -6.64,-12.41l0.01,-0.01z" fill="#2f2e41" id="svg_32"/>
   <path d="m346.69,86.91a11.99,11.99 0 0 0 -12.52,1.95a13.56,13.56 0 0 0 -4.3,12.07c0.67,4.5 3.42,8.37 5.95,12.15s5,7.93 5,12.48a12.38,12.38 0 0 1 -12.32,12.39c3.85,1.65 7.87,3.33 12.04,3.12s8.56,-2.9 9.24,-7.03c0.48,-2.98 -0.99,-5.88 -2.21,-8.63a61.12,61.12 0 0 1 -4.3,-14.06c-0.41,-2.31 -0.68,-4.73 0.07,-6.96a8.18,8.18 0 0 1 8.11,-5.39l1.38,-1.24a10.76,10.76 0 0 0 -6.15,-10.87l0.02,0.01z" fill="#2f2e41" id="svg_33"/>
   <path d="m394.81,151.64a32.04,32.04 0 0 1 -16.54,4.61l-41.37,0.09l-0.07,-0.06l3.54,-9.95a10.68,10.68 0 0 1 9.06,-6.24l2.26,-0.14l5.39,-4.68s14.57,-0.55 14.34,-0.8l8.83,5.28l-0.01,-0.03l3.47,0.2a10.67,10.67 0 0 1 9.09,6.21l1.98,5.51l0.01,0z" fill="#007bff" id="svg_34"/>
   <path d="m409.23,362.87l-79.99,0.16a8.09,8.09 0 0 1 -8.1,-8.07l-0.11,-52.48a8.09,8.09 0 0 1 8.07,-8.1l79.99,-0.16a8.09,8.09 0 0 1 8.1,8.07l0.11,52.48a8.09,8.09 0 0 1 -8.07,8.1z" fill="#e6e6e6" id="svg_35"/>
   <path d="m403.48,300.78l-68.75,0.14a7.37,7.37 0 0 0 -7.35,7.38l0.09,40.81a7.38,7.38 0 0 0 7.38,7.35l43.84,-0.09a32.31,32.31 0 0 0 32.21,-32.33l-0.03,-15.91a7.37,7.37 0 0 0 -7.38,-7.35l-0.01,0z" fill="#fff" id="svg_36"/>
   <circle cx="487.83" cy="419.97" fill="#2f2e41" id="svg_37" r="22.58" transform="matrix(0.733244 -0.00148836 0.00148836 0.733244 10.5224 3.31316)"/>
   <circle cx="487.85" cy="425.34" fill="#ffb8b8" id="svg_38" r="20.17" transform="matrix(0.733244 -0.00148836 0.00148836 0.733244 10.5144 3.3132)"/>
   <path d="m398.52,349.59a32.12,32.12 0 0 1 -20.06,7.06l-36.89,0.08l3.47,-9.77a10.69,10.69 0 0 1 9.06,-6.25l2.26,-0.14l5.4,-4.67s14.56,-0.55 14.34,-0.8l8.83,5.28l-0.01,-0.04l3.46,0.2a10.68,10.68 0 0 1 9.09,6.21l1.03,2.84l0.01,0z" fill="#007bff" id="svg_39"/>
   <path d="m384.68,308.98a32.73,32.73 0 0 0 0.14,-3.32a15.64,15.64 0 0 0 -1.19,-6.41a9.84,9.84 0 0 0 -5.16,-4.96a9.39,9.39 0 0 0 -7.04,0.02a14.19,14.19 0 0 0 -6.7,-2.42a7.48,7.48 0 0 0 -6.38,2.72a10.41,10.41 0 0 1 -1.12,1.44c-1.18,1.1 -2.97,0.94 -4.55,0.72q1.06,0.9 2.13,1.82q-1.28,0.34 -2.56,0.67q1.49,0.89 2.99,1.81c-2.89,1.73 -4.19,5.52 -3.84,8.96c0.34,3.25 1.91,6.22 3.79,8.87c0.74,-1.59 0.58,-3.47 0.57,-5.26a11.89,11.89 0 0 1 0.1,-1.72c6.35,1.5 12.99,2.46 19.71,0.04l1.35,-3.31c0.19,0.02 0.38,0.04 0.57,0.06l0.78,3.24c1.78,0.72 3.55,1.35 5.33,0.68c0.09,0.5 0.14,1.01 0.18,1.5c0.15,-0.59 0.28,-1.18 0.4,-1.78a5.25,5.25 0 0 0 0.67,-0.43a14.46,14.46 0 0 0 -0.18,-2.95l0,0.02z" fill="#2f2e41" id="svg_40"/>
   <circle cx="750.87" cy="195.66" fill="#ffdd00" id="svg_45" r="6.77" transform="matrix(0.733244 -0.00148836 0.00148836 0.733244 10.8566 3.70433)"/>
   <circle cx="772.84" cy="195.61" fill="#ffdd00" id="svg_46" r="6.77" transform="matrix(0.733244 -0.00148836 0.00148836 0.733244 10.8567 3.73703)"/>
   <circle cx="794.82" cy="195.57" fill="#ffdd00" id="svg_47" r="6.77" transform="matrix(0.733244 -0.00148836 0.00148836 0.733244 10.8568 3.76974)"/>
   <circle cx="751.14" cy="327.51" fill="#e6e6e6" id="svg_48" r="6.77" transform="matrix(0.733244 -0.00148836 0.00148836 0.733244 10.6604 3.70493)"/>
   <circle cx="773.11" cy="327.46" fill="#e6e6e6" id="svg_49" r="6.77" transform="matrix(0.733244 -0.00148836 0.00148836 0.733244 10.6605 3.73763)"/>
   <circle cx="795.09" cy="327.42" fill="#e6e6e6" id="svg_50" r="6.77" transform="matrix(0.733244 -0.00148836 0.00148836 0.733244 10.6606 3.77034)"/>
   <circle cx="751.43" cy="467.88" fill="#e6e6e6" id="svg_51" r="6.77" transform="matrix(0.733244 -0.00148836 0.00148836 0.733244 10.4515 3.70556)"/>
   <circle cx="773.4" cy="467.83" fill="#e6e6e6" id="svg_52" r="6.77" transform="matrix(0.733244 -0.00148836 0.00148836 0.733244 10.4516 3.73826)"/>
   <circle cx="795.38" cy="467.79" fill="#e6e6e6" id="svg_53" r="6.77" transform="matrix(0.733244 -0.00148836 0.00148836 0.733244 10.4517 3.77098)"/>
  </g>
  <g id="svg_68">
   <path d="m598.47,66.62l-358.64,0.73a2.01,2.01 0 0 1 -2.02,-2.01l-0.02,-11.81a2.01,2.01 0 0 1 2.01,-2.02l358.64,-0.73a2.01,2.01 0 0 1 2.01,2.01l0.02,11.81a2.01,2.01 0 0 1 -2,2.02z" fill="#e4e4e4" id="svg_41"/>
   <circle cx="326.64" cy="77.84" data-name="Ellipse 90" fill="#fff" id="e64f360c-0cb0-4309-94f7-c4048c501294" r="3.74" transform="matrix(0.762179 -0.00154709 0.00154709 0.762179 0.153801 0.292619)"/>
   <circle cx="340.84" cy="77.81" data-name="Ellipse 91" fill="#fff" id="b16bad97-612f-4358-a052-4ed2c41908d6" r="3.74" transform="matrix(0.762179 -0.00154709 0.00154709 0.762179 0.153868 0.314587)"/>
   <circle cx="355.05" cy="77.79" data-name="Ellipse 92" fill="#fff" id="b150c0f4-fbac-4380-a463-ed2b3702c90d" r="3.74" transform="matrix(0.762179 -0.00154709 0.00154709 0.762179 0.153935 0.336572)"/>
   <path d="m587.84,56.19l-12.46,0.03a0.92,0.92 0 1 1 0,-1.84l12.46,-0.03a0.92,0.92 0 1 1 0,1.84z" fill="#fff" id="svg_42"/>
   <path d="m587.85,59.65l-12.46,0.03a0.92,0.92 0 1 1 0,-1.84l12.46,-0.03a0.92,0.92 0 1 1 0,1.84z" fill="#fff" id="svg_43"/>
   <path d="m587.86,63.11l-12.46,0.03a0.92,0.92 0 1 1 0,-1.85l12.46,-0.03a0.92,0.92 0 1 1 0,1.85z" fill="#fff" id="svg_44"/>
  </g>
 </g>
</svg>