<?xml version="1.0"?>
<svg width="640" height="480" xmlns="http://www.w3.org/2000/svg" xmlns:svg="http://www.w3.org/2000/svg">
 <g class="layer">
  <title>Layer 1</title>
  <g id="svg_40">
   <path d="m169.91,138.21l29.12,17.81c4.82,6.05 12.78,20.82 5.74,29.67l-68.89,79.52l-39.05,-49.99c0.28,-16.02 20.74,-14.9 30.83,-31.32c10.09,-16.42 27.46,-56.08 42.26,-45.68l-0.01,-0.01z" fill="#ccc" id="svg_42"/>
   <path d="m512.42,360.58l-374.02,0c-3.47,0 -6.31,-2.83 -6.31,-6.31s2.83,-6.3 6.31,-6.3l374.02,0c3.47,0 6.3,2.83 6.3,6.3s-2.83,6.31 -6.3,6.31z" fill="#e6e6e6" id="svg_1"/>
   <path d="m429.42,393.14l-208.02,0c-3.47,0 -6.3,-2.83 -6.3,-6.3s2.83,-6.3 6.3,-6.3l208.02,0c3.47,0 6.31,2.83 6.31,6.3s-2.83,6.3 -6.31,6.3z" fill="#e6e6e6" id="svg_2"/>
   <polygon fill="#ffb6b6" id="svg_3" points="180.01785278320312,140.70921325683594 203.5901336669922,130.78890991210938 213.70074462890625,151.51565551757812 188.92974853515625,161.6262664794922 180.01785278320312,140.70921325683594 "/>
   <polygon id="svg_4" opacity="0.1" points="181.06448364257812,139.66261291503906 204.63674926757812,129.74230194091797 214.74734497070312,150.46905517578125 189.9763641357422,160.57965087890625 181.06448364257812,139.66261291503906 "/>
   <path fill="#6c63ff" id="svg_5"/>
   <path d="m151.95,307.47l-54.13,0l-3.42,-4.58l-13.98,-18.68l-3.22,-4.3s-12.13,-22.24 -9.6,-42.46c2.53,-20.22 28.81,-24.77 28.81,-24.77l1.08,0l32.19,28.28l-1.93,26.32l10.19,16.93l14,23.26z" fill="#2f2e41" id="svg_6"/>
   <polygon fill="#2f2e41" id="svg_7" points="108.90426635742188,307.4718322753906 94.39555358886719,307.4718322753906 94.39555358886719,285.98675537109375 108.90426635742188,307.4718322753906 "/>
   <polygon fill="#ffb6b6" id="svg_8" points="507.7301025390625,157.19448852539062 513.1414184570312,190.9488525390625 478.9520568847656,191.38980102539062 478.9520568847656,162.04324340820312 507.7301025390625,157.19448852539062 "/>
   <polygon id="svg_9" opacity="0.1" points="507.7301025390625,157.19448852539062 513.1414184570312,190.9488525390625 478.9520568847656,191.38980102539062 478.9520568847656,162.04324340820312 507.7301025390625,157.19448852539062 "/>
   <path d="m589.17,274.85l-1.81,9.36l-4.47,23.26l-89.98,0c0.7,-5.21 1.66,-12.71 2.69,-20.81c0.1,-0.81 0.21,-1.63 0.31,-2.44c2.57,-20.36 5.39,-43.39 5.39,-43.39l11.83,1.43l22.95,2.78l9.36,1.13l25.04,3.04c12.49,1.51 21.08,13.29 18.7,25.64z" fill="#f2f2f2" id="svg_10"/>
   <path d="m421.83,274.85l-1.8,9.36l-4.48,23.26l-89.98,0c0.7,-5.21 1.66,-12.71 2.69,-20.81c0.1,-0.81 0.21,-1.63 0.31,-2.44c2.57,-20.36 5.39,-43.39 5.39,-43.39l11.83,1.43l22.96,2.78l9.35,1.13l25.04,3.04c12.49,1.51 21.08,13.29 18.7,25.64z" fill="#f2f2f2" id="svg_11"/>
   <path d="m549.17,307.47l-48.8,0c0.74,-0.88 1.17,-1.38 1.17,-1.38l14.62,-2.41l30.15,-4.97s1.37,3.55 2.86,8.77z" fill="#2f2e41" id="svg_12"/>
   <path d="m482.04,307.47l-73.7,0c0.73,-1.46 1.49,-2.92 2.27,-4.37c1.04,-1.95 2.15,-3.68 3.33,-5.22c0.78,-1.03 1.59,-1.97 2.43,-2.83c2.45,-2.53 5.12,-4.36 7.93,-5.62c10.03,-4.51 21.85,-1.75 31.93,2.75c3.78,1.69 7.31,3.62 10.41,5.5c5.46,3.31 9.58,6.48 11.34,7.88c0.6,0.48 0.93,0.76 0.93,0.76l3.13,1.14z" fill="#2f2e41" id="svg_13"/>
   <polygon fill="#ffb6b6" id="svg_14" points="423.56671142578125,307.4718322753906 413.1123352050781,307.4718322753906 415.867431640625,304.27178955078125 417.4244689941406,302.4620056152344 418.091796875,303.00286865234375 423.56671142578125,307.4718322753906 "/>
   <path d="m552.75,308.4l-90.02,0l3.91,-9.79l5.39,-13.47l2.7,-6.76l-2.23,-9.51s-1.1,-0.78 -2.78,-2.18c-5.98,-4.95 -19.29,-17.71 -16.24,-30.81c3.48,-14.92 7.85,-43.98 8.77,-50.24c0.12,-0.78 0.18,-1.21 0.18,-1.21l12.99,-3.18l0.43,-0.1l1.4,-0.35l34.8,0l25.59,17.34l-0.01,0.18l-1.56,47.66l-0.66,20.39s-0.8,2.94 -0.61,7.51c0.13,3.13 0.72,7.03 2.36,11.28c1.73,4.51 4.65,9.42 9.43,14.21c3.62,3.61 5.37,6.66 6.16,9.05z" fill="#0057b7" id="svg_15"/>
   <path d="m544.5,246.64c-0.86,7.01 -1.67,11.99 -1.67,11.99l-8.96,14.79l-6.83,11.28l-11.8,19.46l-1.72,2.85l-1.24,0.94l-37,0l1.77,-1.9l17.62,-18.91l2.28,-2.44l3.7,-3.97l11.55,-37.99l13.61,-44.77s5.52,-1.92 10.9,-0.1c2.83,0.96 5.63,2.94 7.56,6.81c3.68,7.37 1.88,28.45 0.23,41.98z" fill="#0057b7" id="svg_16"/>
   <path d="m480.34,244.95l-10.63,20.81l-9.42,18.46l-4.07,7.97l-1.6,3.14l-13.74,12.15l-31.1,0l5.13,-6.37l1.9,-2.38l7.48,-9.29l4.19,-5.22l11.39,-14.16l3.04,-64.51c0.5,-10.7 8.65,-19.36 19.26,-20.82c0.02,0 0.04,-0.01 0.06,-0.01c3.45,-0.69 8.93,-0.89 13.17,3.21c0.15,0.13 0.29,0.28 0.43,0.43c0.71,0.75 1.39,1.64 2,2.67c0.06,0.1 0.13,0.21 0.17,0.31c0.18,0.33 0.35,0.68 0.51,1.06c5.41,12.61 1.81,52.55 1.81,52.55z" fill="#0057b7" id="svg_17"/>
   <polygon fill="#a0616a" id="svg_18" points="342.1631164550781,150.820556640625 363.3870849609375,180.8360137939453 326.365478515625,181.94161987304688 322.39154052734375,153.734130859375 342.1631164550781,150.820556640625 "/>
   <polygon id="svg_19" opacity="0.1" points="342.1631164550781,150.820556640625 363.3870849609375,180.8360137939453 326.365478515625,181.94161987304688 322.39154052734375,153.734130859375 342.1631164550781,150.820556640625 "/>
   <path d="m239.71,213.01c-2.73,-7.86 -8.99,-12.82 -13.99,-11.09c-5,1.73 -6.84,9.51 -4.12,17.37c1.05,3.15 2.83,6.01 5.21,8.33l11.96,33.14l15.43,-5.94l-13.42,-32.04c0.43,-3.29 0.06,-6.64 -1.07,-9.77z" fill="#a0616a" id="uuid-b14ece9b-aa3d-4fe4-9d8a-4500bc16dcc4-276"/>
   <path d="m381.16,198.65l-0.03,30.59l-2.85,11.3l-5.85,23.24l-4.26,21.37l-3.17,15.92l-1.13,5.69c-0.86,0.57 -1.71,1.12 -2.55,1.65l-73.95,0c-4.2,-2.53 -6.55,-4.49 -6.55,-4.49c0,0 1.17,-1.09 2.49,-2.85c2.25,-2.96 4.96,-7.81 3.3,-12.45c-0.35,-0.97 -0.44,-2.16 -0.33,-3.47c0.68,-8.71 9.8,-23.42 9.8,-23.42l-1.89,-21.85l-0.82,-9.57l11.42,-33.43l-2.92,-15.27c3.43,-4.17 10.33,-9.4 16.2,-9.73l35.95,-1.41l13.42,0.77l0.61,0.17l13.12,27.25z" fill="#ffdd00" id="svg_20"/>
   <g id="svg_21">
    <polygon fill="#ffb6b6" id="svg_22" points="381.3243103027344,308.4021301269531 365.14739990234375,308.4021301269531 364.4346008300781,301.07196044921875 364.41943359375,300.92535400390625 368.9995422363281,300.6119079589844 380.9148864746094,299.7980041503906 381.12213134765625,304.18597412109375 381.2839050292969,307.5528869628906 381.3243103027344,308.4021301269531 "/>
    <path d="m385.31,206.04l6.8,39.87l-5.55,39.23l-0.87,6.11l-1.52,10.79l-0.47,3.31l0.01,0.36l0.12,2.69l-19.21,0l-0.71,-7.33l-0.06,-0.66l-1.44,-15.02l-0.03,-0.25l-3.07,-31.84l6.01,-23.01l0.45,-1.7l0,-0.01l2.62,-39.39l-2.02,-17.91l-0.02,-0.17c0.04,0.03 0.08,0.06 0.11,0.08c0.11,0.07 -13.74,2.46 0.31,0.2c14.05,-2.25 18.85,20.64 18.54,34.64z" fill="#ffdd00" id="svg_23"/>
   </g>
   <path d="m308.53,191.37l-2.74,-13.22s-20.46,12.71 -21.25,16.66c-0.79,3.96 -28.71,62.05 -28.71,62.05l-12.15,-32.45l-15.81,10.56s12.68,50.37 24.55,52.74c11.86,2.37 51.63,-59.62 51.63,-59.62l4.47,-36.72z" fill="#ffdd00" id="svg_24"/>
   <circle cx="489.61" cy="147.64" fill="#ffb6b6" id="svg_25" r="24.58"/>
   <path d="m499.8,157.31s-2.55,-7.03 -3.99,-10.67c-1.44,-3.64 -0.5,-8.37 -0.5,-8.37c0,0 -19.28,-4.26 -26.83,-0.04c-7.56,4.22 -8.06,-17 -0.4,-22.77c0,0 2.05,3.57 1.26,4.59l-0.8,1.03s5.8,-12.27 15.59,-12.88c0,0 4.64,3.71 2.9,4.93c-1.75,1.22 12.89,-6.91 15.44,0.11c0,0 9.34,1.66 7.52,4.85l0.15,2.2s8.46,-0.88 7.86,5.11c0,0 -2.85,-0.57 -4.67,0.65c-1.82,1.22 4.33,6.98 4.33,6.98c0,0 3.7,24.02 -9.13,30.94c0,0 2.08,-10.93 -2.81,-9.15c-4.9,1.79 -5.92,2.48 -5.92,2.48z" fill="#2f2e41" id="svg_26"/>
   <path d="m606.04,313.4l-575.27,0c-8.14,0 -14.76,-6.63 -14.76,-14.77s6.62,-14.76 14.76,-14.76l575.27,0c8.14,0 14.77,6.62 14.77,14.76s-6.63,14.77 -14.77,14.77z" fill="#e6e6e6" id="svg_27"/>
   <path d="m377.79,238.86l-1.12,52.19c-0.11,5.05 -4.24,9.09 -9.29,9.09l-96.02,0c-4.93,0 -9.01,-3.86 -9.27,-8.78l-2.85,-52.19c-0.29,-5.32 3.95,-9.8 9.27,-9.8l99.99,0c5.21,0 9.4,4.28 9.29,9.49z" fill="#3f3d56" id="svg_28"/>
   <path d="m586.42,238.86l-1.12,52.19c-0.11,5.05 -4.24,9.09 -9.29,9.09l-96.02,0c-4.93,0 -9.01,-3.86 -9.27,-8.78l-2.85,-52.19c-0.29,-5.32 3.95,-9.8 9.27,-9.8l99.99,0c5.21,0 9.4,4.28 9.29,9.49z" fill="#3f3d56" id="svg_29"/>
   <circle cx="222.8" cy="130.34" fill="#ffb6b6" id="svg_30" r="22.97"/>
   <polygon fill="#ffb6b6" id="svg_31" points="184.3799591064453,190.44151306152344 186.90762329101562,217.74017333984375 204.09567260742188,286.99786376953125 189.2463836669922,292.2024230957031 164.1587371826172,216.7291259765625 160.6936798095703,186.39727783203125 184.3799591064453,190.44151306152344 "/>
   <path d="m177.54,238.86l-1.12,52.19c-0.11,5.05 -4.24,9.09 -9.29,9.09l-96.02,0c-4.93,0 -9.01,-3.86 -9.27,-8.78l-2.85,-52.19c-0.29,-5.32 3.95,-9.8 9.27,-9.8l99.99,0c5.21,0 9.4,4.28 9.29,9.49z" fill="#3f3d56" id="svg_32"/>
   <ellipse cx="206.83" cy="292.47" fill="#ffb6b6" id="svg_33" rx="18.14" ry="8.02"/>
   <path d="m151.18,203.03l7.33,-38.09s20.38,-2.78 21.09,3.84s-0.51,39 -0.51,39l-27.91,-4.74l0,-0.01z" fill="#ccc" id="svg_34"/>
   <path d="m213.53,133.95s14.21,-5.07 20.2,-7.8c5.99,-2.73 17.9,16.3 18.17,6.25c0.27,-10.05 -3.85,-14.27 -3.85,-14.27c0,0 -1.03,-21.99 -23.18,-19.24c0,0 4.87,-11 -11.12,-12.71c-16,-1.7 -40.88,36.92 -38.65,42.69c2.23,5.78 4.9,10.55 -1.42,16.72c-6.32,6.18 -18.16,41.01 -9.15,50.38c9.01,9.37 9.6,13.44 3.43,19.27c-6.17,5.83 -20.76,18.51 -4.98,20.71c15.77,2.2 -1.44,0.56 10.31,-9.78c11.76,-10.35 28.92,-9.92 22.52,-26.52c-6.41,-16.59 4.72,-40.38 3.33,-43.99c-1.39,-3.61 3.12,-26.51 3.12,-26.51c0,0 10.51,-1.55 11.3,4.79z" fill="#2f2e41" id="svg_35"/>
   <g id="svg_36">
    <circle cx="330.81" cy="136.68" fill="#a0616a" id="svg_37" r="25.01"/>
    <path d="m332.81,103.06c-0.73,0.42 -1.69,-0.22 -1.93,-1.03c-0.23,-0.8 0.04,-1.66 0.31,-2.45l1.35,-4c0.96,-2.83 1.97,-5.77 4.04,-7.93c3.13,-3.25 8.1,-4.08 12.57,-3.48c5.75,0.77 11.42,3.88 14.09,9.03c2.67,5.14 1.54,12.32 -3.29,15.53c6.89,7.89 9.28,16.68 8.9,27.14c-0.38,10.46 -11.78,20.08 -19.21,27.45c-1.66,-1 -3.17,-5.72 -2.26,-7.43c0.91,-1.72 -0.39,-3.7 0.74,-5.27c1.13,-1.58 2.07,0.93 0.93,-0.63c-0.73,-0.99 2.09,-3.27 1.02,-3.87c-5.18,-2.86 -6.91,-9.33 -10.17,-14.28c-3.93,-5.97 -10.65,-10.01 -17.76,-10.68c-3.92,-0.37 -8.06,0.3 -11.28,2.57c-3.21,2.27 -5.29,6.34 -4.55,10.21c-1.93,-1.96 -2.89,-4.84 -2.53,-7.56c0.36,-2.73 2.04,-5.25 4.42,-6.64c-1.44,-4.77 -0.21,-10.26 3.14,-13.95c3.35,-3.7 16.94,-3.07 21.83,-2.09l-0.38,-0.65z" fill="#2f2e41" id="svg_38"/>
    <path d="m333.57,121.31c6.48,0.7 11.16,6.31 15.11,11.5c2.27,2.99 4.66,6.29 4.61,10.04c-0.06,3.8 -2.6,7.05 -3.81,10.65c-1.98,5.88 -0.05,12.88 4.67,16.91c-4.66,0.88 -9.71,-2.62 -10.51,-7.29c-0.94,-5.45 3.19,-10.7 2.7,-16.21c-0.43,-4.85 -4.26,-8.58 -7.5,-12.21c-3.25,-3.63 -6.3,-8.44 -4.81,-13.08l-0.45,-0.31z" fill="#2f2e41" id="svg_39"/>
   </g>
  </g>
 </g>
</svg>