<?xml version="1.0"?>
<svg width="640" height="480" xmlns="http://www.w3.org/2000/svg" xmlns:svg="http://www.w3.org/2000/svg" data-name="Layer 1">
 <g class="layer">
  <title>Layer 1</title>
  <g id="svg_52">
   <g id="svg_53">
    <path d="m184.09,367.62a321.58,340.58 0 0 1 -3.04,43.77c-0.06,0.51 -0.14,1.02 -0.2,1.52l-129.47,-0.77c-0.39,-0.5 -0.75,-1.01 -1.12,-1.53c-1.21,-1.72 -2.34,-3.48 -3.38,-5.3c-5,-8.79 -7.29,-19.08 -5,-26.18l0.04,-0.11a11.76,12.45 0 0 1 2.3,-4.22c5.23,-6.23 15.8,-5.2 25.39,-0.17c-8.61,-9.97 -15.46,-22.56 -15.98,-33.79c-0.51,-10.96 4.91,-18.79 10.77,-25.45c0.19,-0.21 0.39,-0.43 0.58,-0.65c0.1,-0.11 0.19,-0.21 0.29,-0.32c4.58,-5.07 9.92,-10.07 17.64,-9.46c8.47,0.66 17.87,8.17 24.45,16.93c6.59,8.76 10.97,18.7 15.4,28.41c4.44,9.7 9.25,19.65 16.38,27.93c-9.66,-12.94 -17.44,-27.65 -20.32,-41.96s-0.35,-28.06 8.26,-34.8a20.12,21.31 0 0 1 8.82,-3.77c0.37,-0.07 0.75,-0.12 1.13,-0.16c7.97,-0.96 17.47,1.96 25.57,8.93c8.91,7.68 15.1,19.07 18.17,29.87c3.08,10.81 3.4,21.22 3.31,31.27z" fill="#f2f2f2" id="svg_1"/>
    <path d="m265.19,613.1l-2.47,-0.02q-1.18,-0.78 -2.37,-1.54c-0.5,-0.33 -1,-0.65 -1.49,-0.97q-12.32,-7.97 -24.79,-15.28q-12.46,-7.32 -25.05,-13.97a1.04,1.1 0 0 1 -0.59,-1.26a0.3,0.31 0 0 1 0.04,-0.09c0.11,-0.24 0.38,-0.33 0.75,-0.14c1.04,0.54 2.06,1.1 3.1,1.65q12.62,6.76 25.13,14.2q12.5,7.43 24.86,15.52c0.18,0.11 0.35,0.23 0.52,0.34c0.79,0.52 1.57,1.03 2.35,1.55z" fill="#fff" id="svg_2" transform="translate(-206.467 -235.936)"/>
    <path d="m131.31,412.62l-1.53,-0.01c-0.35,-0.51 -0.68,-1.02 -1.03,-1.54q-12.17,-18.06 -24.33,-36.14q-19.92,-29.59 -39.82,-59.18a0.99,1.05 0 0 1 -0.18,-0.36c-0.11,-0.43 0.19,-0.69 0.58,-0.65a1.16,1.23 0 0 1 0.81,0.54q11.17,16.59 22.33,33.18q19.82,29.44 39.63,58.86c0.84,1.25 1.68,2.5 2.51,3.75c0.35,0.51 0.69,1.02 1.04,1.53z" fill="#fff" id="svg_3"/>
    <path d="m165.41,403.21c-0.08,2.73 -0.25,5.42 -0.47,8.09q-0.06,0.76 -0.13,1.52l-1.61,-0.01c0.05,-0.51 0.1,-1.02 0.14,-1.52c0.34,-3.85 0.58,-7.75 0.62,-11.75a154.62,163.76 0 0 0 -3.04,-33.01a194.05,205.52 0 0 0 -9.43,-34.29a222.37,235.51 0 0 0 -15.43,-33.93a0.86,0.91 0 0 1 -0.14,-0.6c0.06,-0.48 0.67,-0.63 1.13,-0.16a1.33,1.41 0 0 1 0.23,0.31q1.11,2.02 2.18,4.06a222.22,235.34 0 0 1 14.77,34.05a193.14,204.55 0 0 1 8.79,34.34a152.54,161.55 0 0 1 2.4,32.9z" fill="#fff" id="svg_4"/>
    <path d="m613.9,333.04c0,-6.58 -23.37,-11.91 -52.2,-11.91s-52.2,5.32 -52.2,11.91c0,4.21 9.61,7.91 24.09,10.03l0,65.24a5.22,5.53 0 0 0 10.44,0l0,-64.07c5.53,0.45 11.47,0.71 17.67,0.71s12.15,-0.26 17.67,-0.71l0,64.07a5.22,5.53 0 0 0 10.44,0l0,-65.24c14.49,-2.12 24.09,-5.82 24.09,-10.03z" fill="#ccc" id="svg_5"/>
    <circle cx="567.48" cy="200.24" fill="#2f2e41" id="svg_6" r="22.49"/>
    <polygon fill="#a0616a" id="svg_7" points="511.52001953125,403.99078369140625 501.6744384765625,403.99078369140625 496.9909362792969,363.7718505859375 511.5215759277344,363.7718505859375 511.52001953125,403.99078369140625 "/>
    <path d="m494.64,401.01l18.98,0a0,0 0 0 1 0,0l0,12.66a0,0 0 0 1 0,0l-30.94,0a0,0 0 0 1 0,0l0,0a11.96,12.66 0 0 1 11.96,-12.66z" fill="#2f2e41" id="svg_8"/>
    <polygon fill="#a0616a" id="svg_9" points="496.1517333984375,398.17156982421875 486.7574768066406,395.0493469238281 493.65740966796875,355.190185546875 507.52154541015625,359.7973937988281 496.1517333984375,398.17156982421875 "/>
    <path d="m480.89,389.98l18.11,6.02a0,0 0 0 1 0,0l-3.58,12.08a0,0 0 0 1 0,0l-29.52,-9.81a0,0 0 0 1 0,0l0,0a11.41,12.08 0 0 1 14.99,-8.29z" fill="#2f2e41" id="svg_10"/>
    <path d="m499.35,382.12a3.58,3.79 0 0 1 -1.26,-0.25l-7.24,-2.87a3.63,3.84 0 0 1 -2.26,-4.41c1.82,-8.68 8.04,-38.25 11.44,-54.11c4.04,-18.8 62.92,-22.3 65.43,-22.44l0.2,-0.01l6.63,8.82c2.39,8.14 1.64,14.5 -2.26,18.88c-11.35,12.8 -45.24,4.86 -49.28,3.85l-18,50.07a3.62,3.84 0 0 1 -3.39,2.47z" fill="#2f2e41" id="svg_11"/>
    <path d="m509.79,388.08a3.58,3.79 0 0 1 -1.26,-0.25l-7.24,-2.87a3.63,3.84 0 0 1 -2.26,-4.41c1.82,-8.68 8.04,-38.25 11.44,-54.11c4.04,-18.8 62.92,-22.3 65.43,-22.44l0.2,-0.01l6.63,8.82c2.39,8.14 1.64,14.5 -2.26,18.88c-11.35,12.8 -45.23,4.86 -49.28,3.85l-18,50.07a3.62,3.84 0 0 1 -3.39,2.47z" fill="#2f2e41" id="svg_12"/>
    <path d="m488.84,265.59a8.46,8.96 0 0 1 0.71,1.19l39.61,4.42l5.7,-8.28l12.92,7.48l-11.19,20.09l-48.58,-13.11a8.43,8.93 0 1 1 0.84,-11.79z" fill="#a0616a" id="svg_13"/>
    <path d="m580.88,316.17a3.61,3.83 0 0 1 -1.65,-0.43c-7.92,-4.26 -23.34,-11.65 -37.64,-13.2a3.53,3.73 0 0 1 -2.49,-1.49a3.63,3.84 0 0 1 -0.67,-2.99c1.28,-7.56 4.25,-26.83 3.87,-42.27a19.76,20.92 0 0 1 14.92,-20.8l0,0a64.14,67.93 0 0 1 7.96,-1.67a19.92,21.09 0 0 1 22.13,24.46c-2.55,16.01 -5.12,38.35 -2.88,53.96a3.62,3.84 0 0 1 -1.46,3.69a3.56,3.77 0 0 1 -2.1,0.73z" fill="#e6e6e6" id="svg_14"/>
    <path d="m543.04,275.48a3.61,3.83 0 0 1 -1.44,-0.31l-10.32,-4.73a3.62,3.84 0 0 1 -1.88,-5.04l7.97,-19.51a9.24,9.78 0 1 1 16.95,7.77l-7.97,19.51a3.62,3.84 0 0 1 -3.32,2.31z" fill="#e6e6e6" id="svg_15"/>
    <circle cx="566.65" cy="205.81" fill="#a0616a" id="svg_16" r="19.72"/>
    <path d="m546.58,195.54a71.14,75.35 0 0 0 30.77,10.74l-3.24,-4.12a23.84,25.25 0 0 0 7.36,1.55c2.51,-0.04 5.15,-1.07 6.58,-3.26a7.5,7.94 0 0 0 0.5,-7.34a14.21,15.05 0 0 0 -4.47,-5.92a26.61,28.19 0 0 0 -24.77,-4.69a15.91,16.85 0 0 0 -7.4,5.03c-1.87,2.44 -5.47,4.62 -4.51,7.6l-0.82,0.42z" fill="#2f2e41" id="svg_17" transform="matrix(1 0 0 1 0 0)"/>
    <path d="m569.97,178.69a60.62,64.2 0 0 0 -22.05,-15.11c-5.33,-2.09 -11.14,-3.39 -16.71,-2.19s-10.84,5.26 -12.4,11.06c-1.27,4.74 0.04,9.84 2.02,14.3s4.61,8.59 6.2,13.22a28.48,30.17 0 0 1 -28.66,40.45c5.48,0.78 10.53,3.5 15.88,4.96s11.67,1.35 15.64,-2.71c4.21,-4.3 4.3,-11.29 4.09,-17.47q-0.45,-13.8 -0.91,-27.6c-0.15,-4.69 -0.28,-9.53 1.32,-13.91s5.39,-8.22 9.82,-8.17c3.36,0.03 6.34,2.19 9.03,4.31s5.54,4.39 8.89,4.7s7.16,-2.3 6.91,-5.85" fill="#2f2e41" id="svg_18"/>
    <path d="m533.5,310.81a8.83,9.36 0 1 1 3.4,-18l0,0a8.49,8.99 0 0 1 1.05,0.56l35.93,-17.08l1.01,-10.33l15.48,-0.43l-0.1,17.18a8.74,9.25 0 0 1 -6.32,8.79l-42.02,12.66a8.24,8.73 0 0 1 -0.29,0.87a8.87,9.4 0 0 1 -8.16,5.77z" fill="#a0616a" id="svg_19"/>
    <path d="m589.07,273.95a3.61,3.83 0 0 1 -1.41,0.41l-11.23,0.73a3.62,3.84 0 0 1 -3.82,-3.59l-1.24,-21.22a9.24,9.78 0 1 1 18.44,-1.2l1.23,21.22a3.62,3.84 0 0 1 -1.97,3.65z" fill="#e6e6e6" id="svg_20" transform="matrix(1 0 0 1 0 0)"/>
    <path d="m564.68,312.95l-63.44,0a-2.81,-2.98 0 0 1 -2.81,-2.98l0,0a-2.81,-2.98 0 0 1 2.81,-2.98l63.44,0a-2.81,-2.98 0 0 1 2.81,2.98l0,0a-2.81,-2.98 0 0 1 -2.81,2.98z" fill="#3f3d56" id="svg_21"/>
    <path d="m473.53,307.43l0,-41.68a5.23,5.54 0 0 1 5.22,-5.53l71.47,0a5.23,5.54 0 0 1 5.22,5.53l0,41.68a5.23,5.54 0 0 1 -5.22,5.53l-71.47,0a5.23,5.54 0 0 1 -5.22,-5.53z" fill="#3f3d56" id="svg_22"/>
    <circle cx="514.49" cy="286.59" fill="#fff" id="svg_23" r="4.82"/>
    <path d="m263.27,237.54a8.08,8.56 0 0 0 -12.3,-1.48l-25.51,-13.94l1.59,15.7l23.97,10.84a8.12,8.6 0 0 0 12.25,-11.12z" fill="#ffb8b8" id="svg_24"/>
    <path d="m240.61,243.87a3.61,3.83 0 0 1 -2.95,0.03l-24.22,-11.12a37.24,39.44 0 0 1 -18.85,-19.31l-12.73,-28.47a11.64,12.33 0 1 1 18.39,-15.12l22.38,43.98l20.67,16.54a3.62,3.84 0 0 1 1.27,4.18l-2.02,6.94a3.62,3.84 0 0 1 -1.23,1.88a3.57,3.78 0 0 1 -0.71,0.47z" fill="#ccc" id="svg_25"/>
    <circle cx="181.3" cy="130.63" fill="#ffb8b8" id="svg_26" r="19.72"/>
    <polygon fill="#ffb8b8" id="svg_27" points="189.29473876953125,404.66522216796875 199.1395263671875,404.66522216796875 203.8238067626953,364.4462890625 189.29234313964844,364.4462890625 189.29473876953125,404.66522216796875 "/>
    <path d="m218.13,414.35l-30.94,0a0,0 0 0 1 0,0l0,-12.66a0,0 0 0 1 0,0l18.98,0a-11.96,-12.66 0 0 1 11.96,12.66l0,0a0,0 0 0 1 0,0z" fill="#2f2e41" id="svg_28"/>
    <polygon fill="#ffb8b8" id="svg_29" points="157.172119140625,404.66522216796875 167.01690673828125,404.66522216796875 171.70118713378906,364.4462890625 157.16970825195312,364.4462890625 157.172119140625,404.66522216796875 "/>
    <path d="m186.01,414.35l-30.94,0a0,0 0 0 1 0,0l0,-12.66a0,0 0 0 1 0,0l18.98,0a-11.96,-12.66 0 0 1 11.96,12.66l0,0a0,0 0 0 1 0,0z" fill="#2f2e41" id="svg_30"/>
    <path d="m153.73,393.15a3.61,3.83 0 0 1 -0.87,-3.03l17.24,-136.92l42.82,7.71l4.58,-2.9l-11.82,129.91a3.62,3.84 0 0 1 -3.29,3.37l-12.97,1.15a3.61,3.83 0 0 1 -3.9,-4.03l3.36,-61.87a0.4,0.43 0 0 0 -0.79,-0.14l-16.62,65.23a3.62,3.84 0 0 1 -3.49,2.83l-11.54,0a3.61,3.83 0 0 1 -2.71,-1.3z" fill="#2f2e41" id="svg_31"/>
    <path d="m183.39,262.79a2.83,3 0 0 0 -3.63,-0.16l-8.56,7.06a3.61,3.83 0 0 1 -5.69,-1.96c-4.2,-15.58 -13.71,-54.79 -11.37,-82.39c1.33,-15.64 14.09,-27.53 28.44,-26.53c9.81,0.69 16.26,6.69 19.19,17.81c7.16,27.32 15.03,77.43 16.54,87.2a3.6,3.81 0 0 1 -1.72,3.9a26.45,28.02 0 0 1 -13.4,4c-5.72,0 -12.58,-2.11 -19.79,-8.93z" fill="#ccc" id="svg_32"/>
    <path d="m186.62,272.51a8.08,8.56 0 0 0 -8.82,-9.21l-11.94,-27.63l-7.9,13.4l12.55,24.19a8.12,8.6 0 0 0 16.11,-0.74z" fill="#ffb8b8" id="svg_33"/>
    <path d="m165.11,262.67a3.61,3.83 0 0 1 -2.34,-1.9l-12.58,-24.59a37.24,39.44 0 0 1 -3.58,-27.51l6.57,-30.72a11.64,12.33 0 1 1 23.29,0.12l-8.02,49.24l6.63,26.52a3.62,3.84 0 0 1 -1.44,4.12l-5.64,4.14a3.62,3.84 0 0 1 -2.06,0.67a3.58,3.79 0 0 1 -0.84,-0.1z" fill="#ccc" id="svg_34"/>
    <polygon id="svg_35" opacity="0.2" points="174.86846923828125,198.84254455566406 167.64088439941406,231.1619415283203 178.0807342529297,258.3782653808594 170.8531494140625,232.012451171875 174.86846923828125,198.84254455566406 "/>
    <path d="m170.04,147.81a13.28,14.07 0 0 1 -5.12,-0.98c-0.72,-0.3 -1.47,-0.54 -2.18,-0.82c-6.33,-2.59 -10.5,-9.73 -10.65,-16.92s3.36,-14.16 8.58,-18.75s11.97,-6.96 18.74,-7.5c7.29,-0.59 15.49,1.37 19.57,7.8c1.08,1.71 1.84,3.78 1.2,5.85a3.53,3.74 0 0 1 -1,1.62c-1.82,1.71 -3.63,0.43 -5.48,0.31c-2.55,-0.15 -4.84,2.03 -5.66,4.59s-0.46,5.38 0.2,7.99a18.84,19.95 0 0 1 0.96,4.86a4.61,4.88 0 0 1 -1.91,4.3c-1.59,1.02 -3.69,0.43 -5.28,-0.59s-2.97,-2.43 -4.69,-3.18s-4.04,-0.59 -5.04,1.08a5.57,5.89 0 0 0 -0.64,1.94c-0.9,4.34 -0.69,4.08 -1.59,8.41z" fill="#2f2e41" id="svg_36"/>
    <path d="m388.06,195.7a3.47,3.67 0 0 1 -0.64,-3.15a82.18,87.03 0 0 0 0,-40.42a3.47,3.67 0 0 1 0.64,-3.15a3.41,3.61 0 0 1 2.7,-1.39l32.02,0a3.45,3.66 0 0 1 3.4,3.07a134.51,142.45 0 0 1 0,43.35a3.45,3.66 0 0 1 -3.4,3.07l-32.02,0a3.41,3.61 0 0 1 -2.7,-1.39z" fill="#e6e6e6" id="svg_37" transform="matrix(1 0 0 1 0 0)"/>
    <path d="m342.52,76.1a3.47,3.67 0 0 1 -0.64,-3.16a82.18,87.03 0 0 0 0,-40.42a3.47,3.67 0 0 1 0.64,-3.16a3.41,3.61 0 0 1 2.7,-1.38l32.02,0a3.45,3.66 0 0 1 3.4,3.06a134.51,142.45 0 0 1 0,43.36a3.45,3.66 0 0 1 -3.4,3.06l-32.02,0a3.41,3.61 0 0 1 -2.7,-1.38z" fill="#e6e6e6" id="svg_38"/>
    <path d="m417.32,116.1a134.51,142.45 0 0 1 0,-43.35a3.45,3.66 0 0 1 3.4,-3.07l32.02,0a3.41,3.61 0 0 1 2.7,1.39a3.47,3.67 0 0 1 0.65,3.15a82.18,87.03 0 0 0 0,40.42a3.47,3.67 0 0 1 -0.65,3.15a3.41,3.61 0 0 1 -2.7,1.39l-32.02,0a3.45,3.66 0 0 1 -3.4,-3.07z" fill="#2f2e41" id="svg_39" transform="matrix(1 0 0 1 0 0)"/>
    <path d="m266.27,123.59a134.52,142.47 0 0 1 0,-43.35a3.45,3.66 0 0 1 3.4,-3.07l32.02,0a3.41,3.61 0 0 1 2.7,1.39a3.47,3.67 0 0 1 0.64,3.15a82.18,87.03 0 0 0 0,40.42a3.47,3.67 0 0 1 -0.64,3.15a3.41,3.61 0 0 1 -2.7,1.39l-32.02,0a3.45,3.66 0 0 1 -3.4,-3.07z" fill="#0057b7" id="svg_40" transform="matrix(1 0 0 1 0 0)"/>
    <path d="m270.18,198.68a3.53,3.73 0 0 1 -0.66,-3.21a83.52,88.45 0 0 0 0,-41.09a3.53,3.73 0 0 1 0.66,-3.2a3.47,3.67 0 0 1 2.74,-1.4l32.55,0a3.51,3.72 0 0 1 3.46,3.11a136.71,144.79 0 0 1 0,44.06a3.51,3.72 0 0 1 -3.46,3.12l-32.55,0a3.47,3.67 0 0 1 -2.74,-1.4z" fill="#ffdd00" id="svg_41"/>
    <path d="m14.44,414.85l621,0a0.96,1.01 0 1 0 0,-2.02l-621,0a0.96,1.01 0 1 0 0,2.02z" fill="#919191" id="svg_42"/>
    <path d="m299.19,173.34l-17.15,0a2.41,2.55 0 0 1 -2.41,-2.55l0,-1.09a2.41,2.55 0 0 1 2.41,-2.55l17.15,0a2.41,2.55 0 0 1 2.41,2.55l0,1.09a2.41,2.55 0 0 1 -2.41,2.55z" fill="#fff" id="svg_43"/>
    <path d="m299.19,184.01l-17.15,0a2.41,2.55 0 0 1 -2.41,-2.55l0,-1.09a2.41,2.55 0 0 1 2.41,-2.55l17.15,0a2.41,2.55 0 0 1 2.41,2.55l0,1.09a2.41,2.55 0 0 1 -2.41,2.55z" fill="#fff" id="svg_44"/>
    <path d="m291.83,98.16l-16.8,0a2.41,2.55 0 0 1 -2.41,-2.55l0,-1a2.41,2.55 0 0 1 2.41,-2.55l16.8,0a2.41,2.55 0 0 1 2.41,2.55l0,1a2.41,2.55 0 0 1 -2.41,2.55z" fill="#fff" id="svg_45" transform="matrix(1 0 0 1 0 0)"/>
    <path d="m416.19,164.12l-16.8,0a2.41,2.55 0 0 1 -2.41,-2.55l0,-1a2.41,2.55 0 0 1 2.41,-2.55l16.8,0a2.41,2.55 0 0 1 2.41,2.55l0,1a2.41,2.55 0 0 1 -2.41,2.55z" fill="#fff" id="svg_46" transform="matrix(1 0 0 1 0 0)"/>
    <path d="m416.19,176.71l-16.8,0a2.41,2.55 0 0 1 -2.41,-2.55l0,-1a2.41,2.55 0 0 1 2.41,-2.55l16.8,0a2.41,2.55 0 0 1 2.41,2.55l0,1a2.41,2.55 0 0 1 -2.41,2.55z" fill="#fff" id="svg_47" transform="matrix(1 0 0 1 0 0)"/>
    <path d="m416.19,189.32l-16.8,0a2.41,2.55 0 0 1 -2.41,-2.55l0,-1a2.41,2.55 0 0 1 2.41,-2.55l16.8,0a2.41,2.55 0 0 1 2.41,2.55l0,1a2.41,2.55 0 0 1 -2.41,2.55z" fill="#fff" id="svg_48" transform="matrix(1 0 0 1 0 0)"/>
    <path d="m291.83,108.66l-16.8,0a2.41,2.55 0 0 1 -2.41,-2.55l0,-1a2.41,2.55 0 0 1 2.41,-2.55l16.8,0a2.41,2.55 0 0 1 2.41,2.55l0,1a2.41,2.55 0 0 1 -2.41,2.55z" fill="#fff" id="svg_49" transform="matrix(1 0 0 1 0 0)"/>
    <path d="m370.8,46.62l-16.8,0a2.41,2.55 0 0 1 -2.41,-2.55l0,-1a2.41,2.55 0 0 1 2.41,-2.55l16.8,0a2.41,2.55 0 0 1 2.41,2.55l0,1a2.41,2.55 0 0 1 -2.41,2.55z" fill="#fff" id="svg_50"/>
    <path d="m443.47,91.72l-16.8,0a2.41,2.55 0 0 1 -2.41,-2.55l0,-1a2.41,2.55 0 0 1 2.41,-2.55l16.8,0a2.41,2.55 0 0 1 2.41,2.55l0,1a2.41,2.55 0 0 1 -2.41,2.55z" fill="#fff" id="svg_51" transform="matrix(1 0 0 1 0 0)"/>
   </g>
  </g>
 </g>
</svg>